%TF.GenerationSoftware,KiCad,Pcbnew,9.0.7*%
%TF.CreationDate,2026-03-16T13:53:35+01:00*%
%TF.ProjectId,AN6291_encoder,414e3632-3931-45f6-956e-636f6465722e,rev?*%
%TF.SameCoordinates,Original*%
%TF.FileFunction,Legend,Bot*%
%TF.FilePolarity,Positive*%
%FSLAX46Y46*%
G04 Gerber Fmt 4.6, Leading zero omitted, Abs format (unit mm)*
G04 Created by KiCad (PCBNEW 9.0.7) date 2026-03-16 13:53:35*
%MOMM*%
%LPD*%
G01*
G04 APERTURE LIST*
%ADD10C,0.150000*%
%ADD11C,0.120000*%
G04 APERTURE END LIST*
D10*
X135820310Y-87540753D02*
X135867929Y-87588373D01*
X135867929Y-87588373D02*
X136010786Y-87635992D01*
X136010786Y-87635992D02*
X136106024Y-87635992D01*
X136106024Y-87635992D02*
X136248881Y-87588373D01*
X136248881Y-87588373D02*
X136344119Y-87493134D01*
X136344119Y-87493134D02*
X136391738Y-87397896D01*
X136391738Y-87397896D02*
X136439357Y-87207420D01*
X136439357Y-87207420D02*
X136439357Y-87064563D01*
X136439357Y-87064563D02*
X136391738Y-86874087D01*
X136391738Y-86874087D02*
X136344119Y-86778849D01*
X136344119Y-86778849D02*
X136248881Y-86683611D01*
X136248881Y-86683611D02*
X136106024Y-86635992D01*
X136106024Y-86635992D02*
X136010786Y-86635992D01*
X136010786Y-86635992D02*
X135867929Y-86683611D01*
X135867929Y-86683611D02*
X135820310Y-86731230D01*
X135486976Y-86635992D02*
X134867929Y-86635992D01*
X134867929Y-86635992D02*
X135201262Y-87016944D01*
X135201262Y-87016944D02*
X135058405Y-87016944D01*
X135058405Y-87016944D02*
X134963167Y-87064563D01*
X134963167Y-87064563D02*
X134915548Y-87112182D01*
X134915548Y-87112182D02*
X134867929Y-87207420D01*
X134867929Y-87207420D02*
X134867929Y-87445515D01*
X134867929Y-87445515D02*
X134915548Y-87540753D01*
X134915548Y-87540753D02*
X134963167Y-87588373D01*
X134963167Y-87588373D02*
X135058405Y-87635992D01*
X135058405Y-87635992D02*
X135344119Y-87635992D01*
X135344119Y-87635992D02*
X135439357Y-87588373D01*
X135439357Y-87588373D02*
X135486976Y-87540753D01*
X134248881Y-86635992D02*
X134153643Y-86635992D01*
X134153643Y-86635992D02*
X134058405Y-86683611D01*
X134058405Y-86683611D02*
X134010786Y-86731230D01*
X134010786Y-86731230D02*
X133963167Y-86826468D01*
X133963167Y-86826468D02*
X133915548Y-87016944D01*
X133915548Y-87016944D02*
X133915548Y-87255039D01*
X133915548Y-87255039D02*
X133963167Y-87445515D01*
X133963167Y-87445515D02*
X134010786Y-87540753D01*
X134010786Y-87540753D02*
X134058405Y-87588373D01*
X134058405Y-87588373D02*
X134153643Y-87635992D01*
X134153643Y-87635992D02*
X134248881Y-87635992D01*
X134248881Y-87635992D02*
X134344119Y-87588373D01*
X134344119Y-87588373D02*
X134391738Y-87540753D01*
X134391738Y-87540753D02*
X134439357Y-87445515D01*
X134439357Y-87445515D02*
X134486976Y-87255039D01*
X134486976Y-87255039D02*
X134486976Y-87016944D01*
X134486976Y-87016944D02*
X134439357Y-86826468D01*
X134439357Y-86826468D02*
X134391738Y-86731230D01*
X134391738Y-86731230D02*
X134344119Y-86683611D01*
X134344119Y-86683611D02*
X134248881Y-86635992D01*
X118075238Y-89454819D02*
X118408571Y-88978628D01*
X118646666Y-89454819D02*
X118646666Y-88454819D01*
X118646666Y-88454819D02*
X118265714Y-88454819D01*
X118265714Y-88454819D02*
X118170476Y-88502438D01*
X118170476Y-88502438D02*
X118122857Y-88550057D01*
X118122857Y-88550057D02*
X118075238Y-88645295D01*
X118075238Y-88645295D02*
X118075238Y-88788152D01*
X118075238Y-88788152D02*
X118122857Y-88883390D01*
X118122857Y-88883390D02*
X118170476Y-88931009D01*
X118170476Y-88931009D02*
X118265714Y-88978628D01*
X118265714Y-88978628D02*
X118646666Y-88978628D01*
X117789523Y-88454819D02*
X117456190Y-89454819D01*
X117456190Y-89454819D02*
X117122857Y-88454819D01*
X116265714Y-89454819D02*
X116837142Y-89454819D01*
X116551428Y-89454819D02*
X116551428Y-88454819D01*
X116551428Y-88454819D02*
X116646666Y-88597676D01*
X116646666Y-88597676D02*
X116741904Y-88692914D01*
X116741904Y-88692914D02*
X116837142Y-88740533D01*
X139761904Y-100654819D02*
X139761904Y-101464342D01*
X139761904Y-101464342D02*
X139714285Y-101559580D01*
X139714285Y-101559580D02*
X139666666Y-101607200D01*
X139666666Y-101607200D02*
X139571428Y-101654819D01*
X139571428Y-101654819D02*
X139380952Y-101654819D01*
X139380952Y-101654819D02*
X139285714Y-101607200D01*
X139285714Y-101607200D02*
X139238095Y-101559580D01*
X139238095Y-101559580D02*
X139190476Y-101464342D01*
X139190476Y-101464342D02*
X139190476Y-100654819D01*
X138285714Y-100988152D02*
X138285714Y-101654819D01*
X138523809Y-100607200D02*
X138761904Y-101321485D01*
X138761904Y-101321485D02*
X138142857Y-101321485D01*
X139532857Y-88754819D02*
X139866190Y-88278628D01*
X140104285Y-88754819D02*
X140104285Y-87754819D01*
X140104285Y-87754819D02*
X139723333Y-87754819D01*
X139723333Y-87754819D02*
X139628095Y-87802438D01*
X139628095Y-87802438D02*
X139580476Y-87850057D01*
X139580476Y-87850057D02*
X139532857Y-87945295D01*
X139532857Y-87945295D02*
X139532857Y-88088152D01*
X139532857Y-88088152D02*
X139580476Y-88183390D01*
X139580476Y-88183390D02*
X139628095Y-88231009D01*
X139628095Y-88231009D02*
X139723333Y-88278628D01*
X139723333Y-88278628D02*
X140104285Y-88278628D01*
X139151904Y-87850057D02*
X139104285Y-87802438D01*
X139104285Y-87802438D02*
X139009047Y-87754819D01*
X139009047Y-87754819D02*
X138770952Y-87754819D01*
X138770952Y-87754819D02*
X138675714Y-87802438D01*
X138675714Y-87802438D02*
X138628095Y-87850057D01*
X138628095Y-87850057D02*
X138580476Y-87945295D01*
X138580476Y-87945295D02*
X138580476Y-88040533D01*
X138580476Y-88040533D02*
X138628095Y-88183390D01*
X138628095Y-88183390D02*
X139199523Y-88754819D01*
X139199523Y-88754819D02*
X138580476Y-88754819D01*
X137723333Y-88088152D02*
X137723333Y-88754819D01*
X137961428Y-87707200D02*
X138199523Y-88421485D01*
X138199523Y-88421485D02*
X137580476Y-88421485D01*
X161289580Y-84037142D02*
X161337200Y-83989523D01*
X161337200Y-83989523D02*
X161384819Y-83846666D01*
X161384819Y-83846666D02*
X161384819Y-83751428D01*
X161384819Y-83751428D02*
X161337200Y-83608571D01*
X161337200Y-83608571D02*
X161241961Y-83513333D01*
X161241961Y-83513333D02*
X161146723Y-83465714D01*
X161146723Y-83465714D02*
X160956247Y-83418095D01*
X160956247Y-83418095D02*
X160813390Y-83418095D01*
X160813390Y-83418095D02*
X160622914Y-83465714D01*
X160622914Y-83465714D02*
X160527676Y-83513333D01*
X160527676Y-83513333D02*
X160432438Y-83608571D01*
X160432438Y-83608571D02*
X160384819Y-83751428D01*
X160384819Y-83751428D02*
X160384819Y-83846666D01*
X160384819Y-83846666D02*
X160432438Y-83989523D01*
X160432438Y-83989523D02*
X160480057Y-84037142D01*
X160718152Y-84894285D02*
X161384819Y-84894285D01*
X160337200Y-84656190D02*
X161051485Y-84418095D01*
X161051485Y-84418095D02*
X161051485Y-85037142D01*
X160718152Y-85846666D02*
X161384819Y-85846666D01*
X160337200Y-85608571D02*
X161051485Y-85370476D01*
X161051485Y-85370476D02*
X161051485Y-85989523D01*
X155042857Y-85174819D02*
X155376190Y-84698628D01*
X155614285Y-85174819D02*
X155614285Y-84174819D01*
X155614285Y-84174819D02*
X155233333Y-84174819D01*
X155233333Y-84174819D02*
X155138095Y-84222438D01*
X155138095Y-84222438D02*
X155090476Y-84270057D01*
X155090476Y-84270057D02*
X155042857Y-84365295D01*
X155042857Y-84365295D02*
X155042857Y-84508152D01*
X155042857Y-84508152D02*
X155090476Y-84603390D01*
X155090476Y-84603390D02*
X155138095Y-84651009D01*
X155138095Y-84651009D02*
X155233333Y-84698628D01*
X155233333Y-84698628D02*
X155614285Y-84698628D01*
X154185714Y-84174819D02*
X154376190Y-84174819D01*
X154376190Y-84174819D02*
X154471428Y-84222438D01*
X154471428Y-84222438D02*
X154519047Y-84270057D01*
X154519047Y-84270057D02*
X154614285Y-84412914D01*
X154614285Y-84412914D02*
X154661904Y-84603390D01*
X154661904Y-84603390D02*
X154661904Y-84984342D01*
X154661904Y-84984342D02*
X154614285Y-85079580D01*
X154614285Y-85079580D02*
X154566666Y-85127200D01*
X154566666Y-85127200D02*
X154471428Y-85174819D01*
X154471428Y-85174819D02*
X154280952Y-85174819D01*
X154280952Y-85174819D02*
X154185714Y-85127200D01*
X154185714Y-85127200D02*
X154138095Y-85079580D01*
X154138095Y-85079580D02*
X154090476Y-84984342D01*
X154090476Y-84984342D02*
X154090476Y-84746247D01*
X154090476Y-84746247D02*
X154138095Y-84651009D01*
X154138095Y-84651009D02*
X154185714Y-84603390D01*
X154185714Y-84603390D02*
X154280952Y-84555771D01*
X154280952Y-84555771D02*
X154471428Y-84555771D01*
X154471428Y-84555771D02*
X154566666Y-84603390D01*
X154566666Y-84603390D02*
X154614285Y-84651009D01*
X154614285Y-84651009D02*
X154661904Y-84746247D01*
X153185714Y-84174819D02*
X153661904Y-84174819D01*
X153661904Y-84174819D02*
X153709523Y-84651009D01*
X153709523Y-84651009D02*
X153661904Y-84603390D01*
X153661904Y-84603390D02*
X153566666Y-84555771D01*
X153566666Y-84555771D02*
X153328571Y-84555771D01*
X153328571Y-84555771D02*
X153233333Y-84603390D01*
X153233333Y-84603390D02*
X153185714Y-84651009D01*
X153185714Y-84651009D02*
X153138095Y-84746247D01*
X153138095Y-84746247D02*
X153138095Y-84984342D01*
X153138095Y-84984342D02*
X153185714Y-85079580D01*
X153185714Y-85079580D02*
X153233333Y-85127200D01*
X153233333Y-85127200D02*
X153328571Y-85174819D01*
X153328571Y-85174819D02*
X153566666Y-85174819D01*
X153566666Y-85174819D02*
X153661904Y-85127200D01*
X153661904Y-85127200D02*
X153709523Y-85079580D01*
X155750357Y-95394819D02*
X156083690Y-94918628D01*
X156321785Y-95394819D02*
X156321785Y-94394819D01*
X156321785Y-94394819D02*
X155940833Y-94394819D01*
X155940833Y-94394819D02*
X155845595Y-94442438D01*
X155845595Y-94442438D02*
X155797976Y-94490057D01*
X155797976Y-94490057D02*
X155750357Y-94585295D01*
X155750357Y-94585295D02*
X155750357Y-94728152D01*
X155750357Y-94728152D02*
X155797976Y-94823390D01*
X155797976Y-94823390D02*
X155845595Y-94871009D01*
X155845595Y-94871009D02*
X155940833Y-94918628D01*
X155940833Y-94918628D02*
X156321785Y-94918628D01*
X154893214Y-94394819D02*
X155083690Y-94394819D01*
X155083690Y-94394819D02*
X155178928Y-94442438D01*
X155178928Y-94442438D02*
X155226547Y-94490057D01*
X155226547Y-94490057D02*
X155321785Y-94632914D01*
X155321785Y-94632914D02*
X155369404Y-94823390D01*
X155369404Y-94823390D02*
X155369404Y-95204342D01*
X155369404Y-95204342D02*
X155321785Y-95299580D01*
X155321785Y-95299580D02*
X155274166Y-95347200D01*
X155274166Y-95347200D02*
X155178928Y-95394819D01*
X155178928Y-95394819D02*
X154988452Y-95394819D01*
X154988452Y-95394819D02*
X154893214Y-95347200D01*
X154893214Y-95347200D02*
X154845595Y-95299580D01*
X154845595Y-95299580D02*
X154797976Y-95204342D01*
X154797976Y-95204342D02*
X154797976Y-94966247D01*
X154797976Y-94966247D02*
X154845595Y-94871009D01*
X154845595Y-94871009D02*
X154893214Y-94823390D01*
X154893214Y-94823390D02*
X154988452Y-94775771D01*
X154988452Y-94775771D02*
X155178928Y-94775771D01*
X155178928Y-94775771D02*
X155274166Y-94823390D01*
X155274166Y-94823390D02*
X155321785Y-94871009D01*
X155321785Y-94871009D02*
X155369404Y-94966247D01*
X153940833Y-94728152D02*
X153940833Y-95394819D01*
X154178928Y-94347200D02*
X154417023Y-95061485D01*
X154417023Y-95061485D02*
X153797976Y-95061485D01*
X128786666Y-88149579D02*
X128834285Y-88197199D01*
X128834285Y-88197199D02*
X128977142Y-88244818D01*
X128977142Y-88244818D02*
X129072380Y-88244818D01*
X129072380Y-88244818D02*
X129215237Y-88197199D01*
X129215237Y-88197199D02*
X129310475Y-88101960D01*
X129310475Y-88101960D02*
X129358094Y-88006722D01*
X129358094Y-88006722D02*
X129405713Y-87816246D01*
X129405713Y-87816246D02*
X129405713Y-87673389D01*
X129405713Y-87673389D02*
X129358094Y-87482913D01*
X129358094Y-87482913D02*
X129310475Y-87387675D01*
X129310475Y-87387675D02*
X129215237Y-87292437D01*
X129215237Y-87292437D02*
X129072380Y-87244818D01*
X129072380Y-87244818D02*
X128977142Y-87244818D01*
X128977142Y-87244818D02*
X128834285Y-87292437D01*
X128834285Y-87292437D02*
X128786666Y-87340056D01*
X127834285Y-88244818D02*
X128405713Y-88244818D01*
X128119999Y-88244818D02*
X128119999Y-87244818D01*
X128119999Y-87244818D02*
X128215237Y-87387675D01*
X128215237Y-87387675D02*
X128310475Y-87482913D01*
X128310475Y-87482913D02*
X128405713Y-87530532D01*
X160769580Y-89117142D02*
X160817200Y-89069523D01*
X160817200Y-89069523D02*
X160864819Y-88926666D01*
X160864819Y-88926666D02*
X160864819Y-88831428D01*
X160864819Y-88831428D02*
X160817200Y-88688571D01*
X160817200Y-88688571D02*
X160721961Y-88593333D01*
X160721961Y-88593333D02*
X160626723Y-88545714D01*
X160626723Y-88545714D02*
X160436247Y-88498095D01*
X160436247Y-88498095D02*
X160293390Y-88498095D01*
X160293390Y-88498095D02*
X160102914Y-88545714D01*
X160102914Y-88545714D02*
X160007676Y-88593333D01*
X160007676Y-88593333D02*
X159912438Y-88688571D01*
X159912438Y-88688571D02*
X159864819Y-88831428D01*
X159864819Y-88831428D02*
X159864819Y-88926666D01*
X159864819Y-88926666D02*
X159912438Y-89069523D01*
X159912438Y-89069523D02*
X159960057Y-89117142D01*
X160198152Y-89974285D02*
X160864819Y-89974285D01*
X159817200Y-89736190D02*
X160531485Y-89498095D01*
X160531485Y-89498095D02*
X160531485Y-90117142D01*
X159864819Y-90402857D02*
X159864819Y-91021904D01*
X159864819Y-91021904D02*
X160245771Y-90688571D01*
X160245771Y-90688571D02*
X160245771Y-90831428D01*
X160245771Y-90831428D02*
X160293390Y-90926666D01*
X160293390Y-90926666D02*
X160341009Y-90974285D01*
X160341009Y-90974285D02*
X160436247Y-91021904D01*
X160436247Y-91021904D02*
X160674342Y-91021904D01*
X160674342Y-91021904D02*
X160769580Y-90974285D01*
X160769580Y-90974285D02*
X160817200Y-90926666D01*
X160817200Y-90926666D02*
X160864819Y-90831428D01*
X160864819Y-90831428D02*
X160864819Y-90545714D01*
X160864819Y-90545714D02*
X160817200Y-90450476D01*
X160817200Y-90450476D02*
X160769580Y-90402857D01*
X154012857Y-89799580D02*
X154060476Y-89847200D01*
X154060476Y-89847200D02*
X154203333Y-89894819D01*
X154203333Y-89894819D02*
X154298571Y-89894819D01*
X154298571Y-89894819D02*
X154441428Y-89847200D01*
X154441428Y-89847200D02*
X154536666Y-89751961D01*
X154536666Y-89751961D02*
X154584285Y-89656723D01*
X154584285Y-89656723D02*
X154631904Y-89466247D01*
X154631904Y-89466247D02*
X154631904Y-89323390D01*
X154631904Y-89323390D02*
X154584285Y-89132914D01*
X154584285Y-89132914D02*
X154536666Y-89037676D01*
X154536666Y-89037676D02*
X154441428Y-88942438D01*
X154441428Y-88942438D02*
X154298571Y-88894819D01*
X154298571Y-88894819D02*
X154203333Y-88894819D01*
X154203333Y-88894819D02*
X154060476Y-88942438D01*
X154060476Y-88942438D02*
X154012857Y-88990057D01*
X153155714Y-89228152D02*
X153155714Y-89894819D01*
X153393809Y-88847200D02*
X153631904Y-89561485D01*
X153631904Y-89561485D02*
X153012857Y-89561485D01*
X152108095Y-89894819D02*
X152679523Y-89894819D01*
X152393809Y-89894819D02*
X152393809Y-88894819D01*
X152393809Y-88894819D02*
X152489047Y-89037676D01*
X152489047Y-89037676D02*
X152584285Y-89132914D01*
X152584285Y-89132914D02*
X152679523Y-89180533D01*
X139450310Y-87485992D02*
X139783643Y-87009801D01*
X140021738Y-87485992D02*
X140021738Y-86485992D01*
X140021738Y-86485992D02*
X139640786Y-86485992D01*
X139640786Y-86485992D02*
X139545548Y-86533611D01*
X139545548Y-86533611D02*
X139497929Y-86581230D01*
X139497929Y-86581230D02*
X139450310Y-86676468D01*
X139450310Y-86676468D02*
X139450310Y-86819325D01*
X139450310Y-86819325D02*
X139497929Y-86914563D01*
X139497929Y-86914563D02*
X139545548Y-86962182D01*
X139545548Y-86962182D02*
X139640786Y-87009801D01*
X139640786Y-87009801D02*
X140021738Y-87009801D01*
X139116976Y-86485992D02*
X138497929Y-86485992D01*
X138497929Y-86485992D02*
X138831262Y-86866944D01*
X138831262Y-86866944D02*
X138688405Y-86866944D01*
X138688405Y-86866944D02*
X138593167Y-86914563D01*
X138593167Y-86914563D02*
X138545548Y-86962182D01*
X138545548Y-86962182D02*
X138497929Y-87057420D01*
X138497929Y-87057420D02*
X138497929Y-87295515D01*
X138497929Y-87295515D02*
X138545548Y-87390753D01*
X138545548Y-87390753D02*
X138593167Y-87438373D01*
X138593167Y-87438373D02*
X138688405Y-87485992D01*
X138688405Y-87485992D02*
X138974119Y-87485992D01*
X138974119Y-87485992D02*
X139069357Y-87438373D01*
X139069357Y-87438373D02*
X139116976Y-87390753D01*
X137545548Y-87485992D02*
X138116976Y-87485992D01*
X137831262Y-87485992D02*
X137831262Y-86485992D01*
X137831262Y-86485992D02*
X137926500Y-86628849D01*
X137926500Y-86628849D02*
X138021738Y-86724087D01*
X138021738Y-86724087D02*
X138116976Y-86771706D01*
D11*
%TO.C,C30*%
X134916201Y-84766173D02*
X135438705Y-84766173D01*
X134916201Y-86236173D02*
X135438705Y-86236173D01*
%TO.C,C24*%
X134836201Y-88976173D02*
X135358705Y-88976173D01*
X134836201Y-90446173D02*
X135358705Y-90446173D01*
%TO.C,RV1*%
X114590000Y-85690000D02*
X114590000Y-87420000D01*
X114590000Y-89180000D02*
X114590000Y-90910000D01*
X114590000Y-90910000D02*
X119810000Y-90910000D01*
X119810000Y-85690000D02*
X114590000Y-85690000D01*
X119810000Y-86270000D02*
X119810000Y-85690000D01*
X119810000Y-88570000D02*
X119810000Y-88030000D01*
X119810000Y-90910000D02*
X119810000Y-90330000D01*
%TO.C,U4*%
X136940000Y-102040000D02*
X136940000Y-102135000D01*
X136940000Y-107065000D02*
X136940000Y-107160000D01*
X136940000Y-107160000D02*
X141060000Y-107160000D01*
X141060000Y-102040000D02*
X136940000Y-102040000D01*
X141060000Y-102135000D02*
X141060000Y-102040000D01*
X141060000Y-107160000D02*
X141060000Y-107065000D01*
X141600000Y-102130000D02*
X141360000Y-101800000D01*
X141840000Y-101800000D01*
X141600000Y-102130000D01*
G36*
X141600000Y-102130000D02*
G01*
X141360000Y-101800000D01*
X141840000Y-101800000D01*
X141600000Y-102130000D01*
G37*
%TO.C,R24*%
X139204517Y-89056173D02*
X138750389Y-89056173D01*
X139204517Y-90526173D02*
X138750389Y-90526173D01*
%TO.C,C44*%
X157650000Y-83718748D02*
X157650000Y-85141252D01*
X159470000Y-83718748D02*
X159470000Y-85141252D01*
%TO.C,R65*%
X154172936Y-82335000D02*
X154627064Y-82335000D01*
X154172936Y-83805000D02*
X154627064Y-83805000D01*
%TO.C,R64*%
X154880436Y-92555000D02*
X155334564Y-92555000D01*
X154880436Y-94025000D02*
X155334564Y-94025000D01*
%TO.C,C1*%
X129331252Y-88730000D02*
X127908748Y-88730000D01*
X129331252Y-90550000D02*
X127908748Y-90550000D01*
%TO.C,C43*%
X157650000Y-90471252D02*
X157650000Y-89048748D01*
X159470000Y-90471252D02*
X159470000Y-89048748D01*
%TO.C,C47*%
X143100000Y-106166252D02*
X143100000Y-104743748D01*
X144920000Y-106166252D02*
X144920000Y-104743748D01*
%TO.C,C41*%
X153108748Y-87025000D02*
X153631252Y-87025000D01*
X153108748Y-88495000D02*
X153631252Y-88495000D01*
%TO.C,R31*%
X139152017Y-84726173D02*
X138697889Y-84726173D01*
X139152017Y-86196173D02*
X138697889Y-86196173D01*
%TO.C,C46*%
X132910000Y-106191252D02*
X132910000Y-104768748D01*
X134730000Y-106191252D02*
X134730000Y-104768748D01*
%TD*%
M02*
