%TF.GenerationSoftware,KiCad,Pcbnew,9.0.7*%
%TF.CreationDate,2026-03-24T10:54:31+01:00*%
%TF.ProjectId,AN6291_encoder,414e3632-3931-45f6-956e-636f6465722e,rev?*%
%TF.SameCoordinates,Original*%
%TF.FileFunction,Soldermask,Bot*%
%TF.FilePolarity,Negative*%
%FSLAX46Y46*%
G04 Gerber Fmt 4.6, Leading zero omitted, Abs format (unit mm)*
G04 Created by KiCad (PCBNEW 9.0.7) date 2026-03-24 10:54:31*
%MOMM*%
%LPD*%
G01*
G04 APERTURE LIST*
G04 Aperture macros list*
%AMRoundRect*
0 Rectangle with rounded corners*
0 $1 Rounding radius*
0 $2 $3 $4 $5 $6 $7 $8 $9 X,Y pos of 4 corners*
0 Add a 4 corners polygon primitive as box body*
4,1,4,$2,$3,$4,$5,$6,$7,$8,$9,$2,$3,0*
0 Add four circle primitives for the rounded corners*
1,1,$1+$1,$2,$3*
1,1,$1+$1,$4,$5*
1,1,$1+$1,$6,$7*
1,1,$1+$1,$8,$9*
0 Add four rect primitives between the rounded corners*
20,1,$1+$1,$2,$3,$4,$5,0*
20,1,$1+$1,$4,$5,$6,$7,0*
20,1,$1+$1,$6,$7,$8,$9,0*
20,1,$1+$1,$8,$9,$2,$3,0*%
G04 Aperture macros list end*
%ADD10R,0.850000X0.850000*%
%ADD11RoundRect,0.250000X0.845000X-0.620000X0.845000X0.620000X-0.845000X0.620000X-0.845000X-0.620000X0*%
%ADD12O,2.190000X1.740000*%
%ADD13C,3.600000*%
%ADD14C,5.600000*%
%ADD15C,1.200000*%
%ADD16R,2.430000X2.430000*%
%ADD17C,2.200000*%
%ADD18R,2.775000X2.775000*%
%ADD19C,2.775000*%
%ADD20RoundRect,0.250000X0.550000X-0.950000X0.550000X0.950000X-0.550000X0.950000X-0.550000X-0.950000X0*%
%ADD21O,1.600000X2.400000*%
%ADD22R,1.700000X1.700000*%
%ADD23C,1.700000*%
%ADD24R,1.300000X1.300000*%
%ADD25C,1.300000*%
%ADD26RoundRect,0.250000X0.750000X-0.750000X0.750000X0.750000X-0.750000X0.750000X-0.750000X-0.750000X0*%
%ADD27C,2.000000*%
%ADD28RoundRect,0.250000X-0.325000X-0.650000X0.325000X-0.650000X0.325000X0.650000X-0.325000X0.650000X0*%
%ADD29RoundRect,0.250000X-0.400000X-0.400000X0.400000X-0.400000X0.400000X0.400000X-0.400000X0.400000X0*%
%ADD30RoundRect,0.250000X-0.750000X-0.400000X0.750000X-0.400000X0.750000X0.400000X-0.750000X0.400000X0*%
%ADD31RoundRect,0.150000X0.825000X0.150000X-0.825000X0.150000X-0.825000X-0.150000X0.825000X-0.150000X0*%
%ADD32RoundRect,0.250000X0.262500X0.450000X-0.262500X0.450000X-0.262500X-0.450000X0.262500X-0.450000X0*%
%ADD33RoundRect,0.250000X-0.650000X0.325000X-0.650000X-0.325000X0.650000X-0.325000X0.650000X0.325000X0*%
%ADD34RoundRect,0.250000X-0.262500X-0.450000X0.262500X-0.450000X0.262500X0.450000X-0.262500X0.450000X0*%
%ADD35RoundRect,0.250000X0.325000X0.650000X-0.325000X0.650000X-0.325000X-0.650000X0.325000X-0.650000X0*%
%ADD36RoundRect,0.250000X0.650000X-0.325000X0.650000X0.325000X-0.650000X0.325000X-0.650000X-0.325000X0*%
%ADD37RoundRect,0.250000X-0.250000X-0.475000X0.250000X-0.475000X0.250000X0.475000X-0.250000X0.475000X0*%
G04 APERTURE END LIST*
D10*
%TO.C,TP3*%
X157660000Y-100620000D03*
%TD*%
D11*
%TO.C,J2*%
X167970000Y-90870000D03*
D12*
X167970000Y-88330000D03*
X167970000Y-85790000D03*
X167970000Y-83250000D03*
%TD*%
D13*
%TO.C,H2*%
X174090000Y-69000000D03*
D14*
X174090000Y-69000000D03*
%TD*%
D10*
%TO.C,TP1*%
X169900000Y-112350000D03*
%TD*%
D13*
%TO.C,H4*%
X174090000Y-109000000D03*
D14*
X174090000Y-109000000D03*
%TD*%
D15*
%TO.C,J1*%
X146550000Y-116800000D03*
X156550000Y-116800000D03*
X146550000Y-114300000D03*
X156550000Y-114300000D03*
X151550000Y-109300000D03*
D16*
X151550000Y-114300000D03*
D17*
X146550000Y-109300000D03*
X149050000Y-109300000D03*
X154050000Y-109300000D03*
X156550000Y-109300000D03*
%TD*%
D13*
%TO.C,H3*%
X124090000Y-109000000D03*
D14*
X124090000Y-109000000D03*
%TD*%
D18*
%TO.C,S1*%
X139615000Y-71570000D03*
D19*
X144315000Y-71570000D03*
X149015000Y-71570000D03*
X137710000Y-62040000D03*
X150920000Y-62040000D03*
%TD*%
D20*
%TO.C,U1*%
X122477453Y-92801173D03*
D21*
X125017453Y-92801173D03*
X127557453Y-92801173D03*
X130097453Y-92801173D03*
X132637453Y-92801173D03*
X135177453Y-92801173D03*
X137717453Y-92801173D03*
X140257453Y-92801173D03*
X142797453Y-92801173D03*
X145337453Y-92801173D03*
X147877453Y-92801173D03*
X147877453Y-82641173D03*
X145337453Y-82641173D03*
X142797453Y-82641173D03*
X140257453Y-82641173D03*
X137717453Y-82641173D03*
X135177453Y-82641173D03*
X132637453Y-82641173D03*
X130097453Y-82641173D03*
X127557453Y-82641173D03*
X125017453Y-82641173D03*
X122477453Y-82641173D03*
%TD*%
D22*
%TO.C,J3*%
X118260000Y-65605000D03*
D23*
X118260000Y-68145000D03*
%TD*%
D24*
%TO.C,Q2*%
X106012453Y-74386173D03*
D25*
X107282453Y-75656173D03*
X106012453Y-76926173D03*
%TD*%
D13*
%TO.C,H1*%
X124090000Y-69000000D03*
D14*
X124090000Y-69000000D03*
%TD*%
D15*
%TO.C,J4*%
X133780000Y-116800000D03*
X143780000Y-116800000D03*
X133780000Y-114300000D03*
X143780000Y-114300000D03*
X138780000Y-109300000D03*
D16*
X138780000Y-114300000D03*
D17*
X133780000Y-109300000D03*
X136280000Y-109300000D03*
X141280000Y-109300000D03*
X143780000Y-109300000D03*
%TD*%
D24*
%TO.C,Q1*%
X106857453Y-100351173D03*
D25*
X105587453Y-101621173D03*
X104317453Y-100351173D03*
%TD*%
D26*
%TO.C,C37*%
X106510000Y-90837677D03*
D27*
X106510000Y-85837677D03*
%TD*%
D28*
%TO.C,C30*%
X134115000Y-85650000D03*
X137065000Y-85650000D03*
%TD*%
%TO.C,C24*%
X133905000Y-89740000D03*
X136855000Y-89740000D03*
%TD*%
D29*
%TO.C,RV1*%
X119950000Y-89450000D03*
D30*
X114450000Y-88300000D03*
D29*
X119950000Y-87150000D03*
%TD*%
D31*
%TO.C,U4*%
X141475000Y-102695000D03*
X141475000Y-103965000D03*
X141475000Y-105235000D03*
X141475000Y-106505000D03*
X136525000Y-106505000D03*
X136525000Y-105235000D03*
X136525000Y-103965000D03*
X136525000Y-102695000D03*
%TD*%
D32*
%TO.C,R24*%
X140512500Y-89950000D03*
X138687500Y-89950000D03*
%TD*%
D33*
%TO.C,C44*%
X158560000Y-82955000D03*
X158560000Y-85905000D03*
%TD*%
D34*
%TO.C,R65*%
X153487500Y-83070000D03*
X155312500Y-83070000D03*
%TD*%
%TO.C,R64*%
X154195000Y-93290000D03*
X156020000Y-93290000D03*
%TD*%
D35*
%TO.C,C1*%
X130095001Y-89640000D03*
X127144999Y-89640000D03*
%TD*%
D36*
%TO.C,C43*%
X158560000Y-91235000D03*
X158560000Y-88285000D03*
%TD*%
%TO.C,C47*%
X144010000Y-106930000D03*
X144010000Y-103980000D03*
%TD*%
D37*
%TO.C,C41*%
X152420000Y-87760000D03*
X154320000Y-87760000D03*
%TD*%
D32*
%TO.C,R31*%
X140632500Y-85461173D03*
X138807500Y-85461173D03*
%TD*%
D36*
%TO.C,C46*%
X133820000Y-106955000D03*
X133820000Y-104005000D03*
%TD*%
M02*
