%TF.GenerationSoftware,KiCad,Pcbnew,9.0.7*%
%TF.CreationDate,2026-03-24T10:54:31+01:00*%
%TF.ProjectId,AN6291_encoder,414e3632-3931-45f6-956e-636f6465722e,rev?*%
%TF.SameCoordinates,Original*%
%TF.FileFunction,Paste,Top*%
%TF.FilePolarity,Positive*%
%FSLAX46Y46*%
G04 Gerber Fmt 4.6, Leading zero omitted, Abs format (unit mm)*
G04 Created by KiCad (PCBNEW 9.0.7) date 2026-03-24 10:54:31*
%MOMM*%
%LPD*%
G01*
G04 APERTURE LIST*
G04 Aperture macros list*
%AMRoundRect*
0 Rectangle with rounded corners*
0 $1 Rounding radius*
0 $2 $3 $4 $5 $6 $7 $8 $9 X,Y pos of 4 corners*
0 Add a 4 corners polygon primitive as box body*
4,1,4,$2,$3,$4,$5,$6,$7,$8,$9,$2,$3,0*
0 Add four circle primitives for the rounded corners*
1,1,$1+$1,$2,$3*
1,1,$1+$1,$4,$5*
1,1,$1+$1,$6,$7*
1,1,$1+$1,$8,$9*
0 Add four rect primitives between the rounded corners*
20,1,$1+$1,$2,$3,$4,$5,0*
20,1,$1+$1,$4,$5,$6,$7,0*
20,1,$1+$1,$6,$7,$8,$9,0*
20,1,$1+$1,$8,$9,$2,$3,0*%
G04 Aperture macros list end*
%ADD10RoundRect,0.250000X-0.450000X0.262500X-0.450000X-0.262500X0.450000X-0.262500X0.450000X0.262500X0*%
%ADD11RoundRect,0.150000X-0.150000X0.587500X-0.150000X-0.587500X0.150000X-0.587500X0.150000X0.587500X0*%
%ADD12RoundRect,0.250000X0.250000X0.475000X-0.250000X0.475000X-0.250000X-0.475000X0.250000X-0.475000X0*%
%ADD13RoundRect,0.250000X0.450000X-0.262500X0.450000X0.262500X-0.450000X0.262500X-0.450000X-0.262500X0*%
%ADD14RoundRect,0.250000X0.475000X-0.250000X0.475000X0.250000X-0.475000X0.250000X-0.475000X-0.250000X0*%
%ADD15RoundRect,0.250000X0.262500X0.450000X-0.262500X0.450000X-0.262500X-0.450000X0.262500X-0.450000X0*%
%ADD16RoundRect,0.250000X-0.475000X0.250000X-0.475000X-0.250000X0.475000X-0.250000X0.475000X0.250000X0*%
%ADD17RoundRect,0.250000X0.325000X0.650000X-0.325000X0.650000X-0.325000X-0.650000X0.325000X-0.650000X0*%
%ADD18RoundRect,0.250000X-0.262500X-0.450000X0.262500X-0.450000X0.262500X0.450000X-0.262500X0.450000X0*%
%ADD19RoundRect,0.250000X-0.250000X-0.475000X0.250000X-0.475000X0.250000X0.475000X-0.250000X0.475000X0*%
%ADD20RoundRect,0.175000X-0.175000X-0.325000X0.175000X-0.325000X0.175000X0.325000X-0.175000X0.325000X0*%
%ADD21RoundRect,0.150000X-0.200000X-0.150000X0.200000X-0.150000X0.200000X0.150000X-0.200000X0.150000X0*%
%ADD22RoundRect,0.250000X-0.650000X0.325000X-0.650000X-0.325000X0.650000X-0.325000X0.650000X0.325000X0*%
%ADD23RoundRect,0.175000X0.325000X-0.175000X0.325000X0.175000X-0.325000X0.175000X-0.325000X-0.175000X0*%
%ADD24RoundRect,0.150000X0.150000X-0.200000X0.150000X0.200000X-0.150000X0.200000X-0.150000X-0.200000X0*%
%ADD25RoundRect,0.250000X0.650000X-0.325000X0.650000X0.325000X-0.650000X0.325000X-0.650000X-0.325000X0*%
%ADD26RoundRect,0.150000X0.587500X0.150000X-0.587500X0.150000X-0.587500X-0.150000X0.587500X-0.150000X0*%
%ADD27RoundRect,0.250000X-0.325000X-0.650000X0.325000X-0.650000X0.325000X0.650000X-0.325000X0.650000X0*%
%ADD28RoundRect,0.250001X-0.462499X-0.624999X0.462499X-0.624999X0.462499X0.624999X-0.462499X0.624999X0*%
%ADD29RoundRect,0.150000X-0.150000X0.825000X-0.150000X-0.825000X0.150000X-0.825000X0.150000X0.825000X0*%
G04 APERTURE END LIST*
D10*
%TO.C,R37*%
X172200000Y-100117500D03*
X172200000Y-101942500D03*
%TD*%
D11*
%TO.C,Q6*%
X161450000Y-99635000D03*
X159550000Y-99635000D03*
X160500000Y-101510000D03*
%TD*%
D12*
%TO.C,C50*%
X151640000Y-100320000D03*
X149740000Y-100320000D03*
%TD*%
D10*
%TO.C,R29*%
X137747453Y-77948673D03*
X137747453Y-79773673D03*
%TD*%
%TO.C,R42*%
X161340000Y-95822500D03*
X161340000Y-97647500D03*
%TD*%
D13*
%TO.C,R9*%
X118520000Y-93652500D03*
X118520000Y-91827500D03*
%TD*%
D14*
%TO.C,C36*%
X174420000Y-102000000D03*
X174420000Y-100100000D03*
%TD*%
D15*
%TO.C,R53*%
X155332500Y-83040000D03*
X153507500Y-83040000D03*
%TD*%
D10*
%TO.C,R28*%
X127460000Y-102777500D03*
X127460000Y-104602500D03*
%TD*%
D16*
%TO.C,C33*%
X165606250Y-110942500D03*
X165606250Y-112842500D03*
%TD*%
D14*
%TO.C,C15*%
X111882453Y-79026173D03*
X111882453Y-77126173D03*
%TD*%
D10*
%TO.C,R11*%
X118480000Y-82717500D03*
X118480000Y-84542500D03*
%TD*%
D14*
%TO.C,C31*%
X135700000Y-77980000D03*
X135700000Y-76080000D03*
%TD*%
D17*
%TO.C,C17*%
X125345000Y-75770000D03*
X122395000Y-75770000D03*
%TD*%
D16*
%TO.C,C28*%
X129770000Y-106510000D03*
X129770000Y-108410000D03*
%TD*%
D18*
%TO.C,R1*%
X145724953Y-79841173D03*
X147549953Y-79841173D03*
%TD*%
D19*
%TO.C,C26*%
X130947453Y-99293673D03*
X132847453Y-99293673D03*
%TD*%
D20*
%TO.C,Q5*%
X164934575Y-100049301D03*
D21*
X164934575Y-101749301D03*
X166934575Y-101749301D03*
X166934575Y-99849301D03*
%TD*%
D13*
%TO.C,R3*%
X125027453Y-97261173D03*
X125027453Y-95436173D03*
%TD*%
%TO.C,R17*%
X109902453Y-78958673D03*
X109902453Y-77133673D03*
%TD*%
D18*
%TO.C,R15*%
X113362453Y-80946173D03*
X115187453Y-80946173D03*
%TD*%
D16*
%TO.C,C25*%
X137767453Y-99091173D03*
X137767453Y-100991173D03*
%TD*%
D12*
%TO.C,C21*%
X149880000Y-95430000D03*
X147980000Y-95430000D03*
%TD*%
D18*
%TO.C,R40*%
X168427500Y-99760000D03*
X170252500Y-99760000D03*
%TD*%
D10*
%TO.C,R26*%
X131187453Y-95431173D03*
X131187453Y-97256173D03*
%TD*%
D17*
%TO.C,C6*%
X125275000Y-101450000D03*
X122325000Y-101450000D03*
%TD*%
D22*
%TO.C,C29*%
X131790000Y-101835000D03*
X131790000Y-104785000D03*
%TD*%
D18*
%TO.C,R8*%
X116664953Y-95751173D03*
X118489953Y-95751173D03*
%TD*%
%TO.C,R55*%
X153267500Y-79660000D03*
X155092500Y-79660000D03*
%TD*%
D23*
%TO.C,Q4*%
X160250000Y-108895000D03*
D24*
X161950000Y-108895000D03*
X161950000Y-106895000D03*
X160050000Y-106895000D03*
%TD*%
D10*
%TO.C,R38*%
X163560000Y-95842500D03*
X163560000Y-97667500D03*
%TD*%
D13*
%TO.C,R30*%
X167606250Y-112775000D03*
X167606250Y-110950000D03*
%TD*%
D25*
%TO.C,C13*%
X140210000Y-80245000D03*
X140210000Y-77295000D03*
%TD*%
D16*
%TO.C,C9*%
X116157453Y-97541173D03*
X116157453Y-99441173D03*
%TD*%
D10*
%TO.C,R27*%
X129640000Y-102727500D03*
X129640000Y-104552500D03*
%TD*%
D18*
%TO.C,R7*%
X113082453Y-95761173D03*
X114907453Y-95761173D03*
%TD*%
%TO.C,R16*%
X109852453Y-80946173D03*
X111677453Y-80946173D03*
%TD*%
D15*
%TO.C,R60*%
X158852500Y-104120000D03*
X157027500Y-104120000D03*
%TD*%
D16*
%TO.C,C4*%
X146107453Y-95191173D03*
X146107453Y-97091173D03*
%TD*%
D12*
%TO.C,C32*%
X141690000Y-75480000D03*
X139790000Y-75480000D03*
%TD*%
%TO.C,C22*%
X152510000Y-93280000D03*
X150610000Y-93280000D03*
%TD*%
D10*
%TO.C,R52*%
X159250000Y-79447500D03*
X159250000Y-81272500D03*
%TD*%
D14*
%TO.C,C18*%
X127567453Y-76868673D03*
X127567453Y-74968673D03*
%TD*%
%TO.C,C35*%
X170030000Y-97940000D03*
X170030000Y-96040000D03*
%TD*%
D19*
%TO.C,C20*%
X151560000Y-77560000D03*
X153460000Y-77560000D03*
%TD*%
D13*
%TO.C,R35*%
X162520000Y-105445000D03*
X162520000Y-103620000D03*
%TD*%
%TO.C,R2*%
X127257453Y-97223673D03*
X127257453Y-95398673D03*
%TD*%
D18*
%TO.C,R20*%
X149707500Y-79620000D03*
X151532500Y-79620000D03*
%TD*%
D15*
%TO.C,R50*%
X156012500Y-93300000D03*
X154187500Y-93300000D03*
%TD*%
D16*
%TO.C,C7*%
X107457453Y-95591173D03*
X107457453Y-97491173D03*
%TD*%
D14*
%TO.C,C14*%
X115982453Y-79076173D03*
X115982453Y-77176173D03*
%TD*%
D18*
%TO.C,R14*%
X116822453Y-80946173D03*
X118647453Y-80946173D03*
%TD*%
D15*
%TO.C,R49*%
X162945000Y-90050000D03*
X161120000Y-90050000D03*
%TD*%
D26*
%TO.C,Q3*%
X165767500Y-108955000D03*
X165767500Y-107055000D03*
X163892500Y-108005000D03*
%TD*%
D16*
%TO.C,C16*%
X107840000Y-79140000D03*
X107840000Y-81040000D03*
%TD*%
D13*
%TO.C,R39*%
X163260000Y-101472500D03*
X163260000Y-99647500D03*
%TD*%
D10*
%TO.C,R59*%
X142870000Y-102770000D03*
X142870000Y-104595000D03*
%TD*%
%TO.C,R10*%
X113677453Y-97578673D03*
X113677453Y-99403673D03*
%TD*%
D14*
%TO.C,C45*%
X138980000Y-104800000D03*
X138980000Y-102900000D03*
%TD*%
D13*
%TO.C,R21*%
X151720000Y-97052500D03*
X151720000Y-95227500D03*
%TD*%
D16*
%TO.C,C8*%
X111357453Y-97521173D03*
X111357453Y-99421173D03*
%TD*%
D14*
%TO.C,C3*%
X145727453Y-77841173D03*
X145727453Y-75941173D03*
%TD*%
D15*
%TO.C,R48*%
X163412500Y-85360000D03*
X161587500Y-85360000D03*
%TD*%
D18*
%TO.C,R61*%
X159897500Y-112790000D03*
X161722500Y-112790000D03*
%TD*%
D12*
%TO.C,C23*%
X141640000Y-100000000D03*
X139740000Y-100000000D03*
%TD*%
D13*
%TO.C,R23*%
X142797453Y-97001173D03*
X142797453Y-95176173D03*
%TD*%
%TO.C,R51*%
X157150000Y-81250000D03*
X157150000Y-79425000D03*
%TD*%
D25*
%TO.C,C2*%
X131620000Y-80015000D03*
X131620000Y-77065000D03*
%TD*%
D10*
%TO.C,R12*%
X120500000Y-77230000D03*
X120500000Y-79055000D03*
%TD*%
%TO.C,R13*%
X113932453Y-77193673D03*
X113932453Y-79018673D03*
%TD*%
D27*
%TO.C,C40*%
X156785000Y-85310000D03*
X159735000Y-85310000D03*
%TD*%
D18*
%TO.C,R57*%
X146137500Y-102350000D03*
X147962500Y-102350000D03*
%TD*%
D13*
%TO.C,R36*%
X164870000Y-105467500D03*
X164870000Y-103642500D03*
%TD*%
D22*
%TO.C,C12*%
X118180000Y-76145000D03*
X118180000Y-79095000D03*
%TD*%
D25*
%TO.C,C10*%
X118560000Y-100605000D03*
X118560000Y-97655000D03*
%TD*%
D15*
%TO.C,R54*%
X155422500Y-95440000D03*
X153597500Y-95440000D03*
%TD*%
D27*
%TO.C,C39*%
X156290000Y-90130000D03*
X159240000Y-90130000D03*
%TD*%
D25*
%TO.C,C27*%
X135350000Y-101245000D03*
X135350000Y-98295000D03*
%TD*%
D15*
%TO.C,R56*%
X148080000Y-104380000D03*
X146255000Y-104380000D03*
%TD*%
D13*
%TO.C,R22*%
X137697453Y-97261173D03*
X137697453Y-95436173D03*
%TD*%
%TO.C,R4*%
X109407453Y-99393673D03*
X109407453Y-97568673D03*
%TD*%
D28*
%TO.C,F1*%
X129385000Y-65560000D03*
X132360000Y-65560000D03*
%TD*%
D10*
%TO.C,R25*%
X133150000Y-95417500D03*
X133150000Y-97242500D03*
%TD*%
D18*
%TO.C,R41*%
X168440000Y-101747500D03*
X170265000Y-101747500D03*
%TD*%
D10*
%TO.C,R32*%
X142717453Y-78266173D03*
X142717453Y-80091173D03*
%TD*%
D12*
%TO.C,C19*%
X149630000Y-77680000D03*
X147730000Y-77680000D03*
%TD*%
D25*
%TO.C,C11*%
X140450000Y-98115000D03*
X140450000Y-95165000D03*
%TD*%
D10*
%TO.C,R58*%
X134760000Y-102907500D03*
X134760000Y-104732500D03*
%TD*%
D18*
%TO.C,R62*%
X149790000Y-104350000D03*
X151615000Y-104350000D03*
%TD*%
D15*
%TO.C,R63*%
X151600000Y-102340000D03*
X149775000Y-102340000D03*
%TD*%
D14*
%TO.C,C34*%
X165560000Y-97775000D03*
X165560000Y-95875000D03*
%TD*%
D16*
%TO.C,C42*%
X161390000Y-79400000D03*
X161390000Y-81300000D03*
%TD*%
D13*
%TO.C,R5*%
X121090000Y-99346173D03*
X121090000Y-97521173D03*
%TD*%
%TO.C,R33*%
X167800000Y-108890000D03*
X167800000Y-107065000D03*
%TD*%
D18*
%TO.C,R6*%
X109524953Y-95751173D03*
X111349953Y-95751173D03*
%TD*%
%TO.C,R34*%
X159907500Y-110565000D03*
X161732500Y-110565000D03*
%TD*%
D10*
%TO.C,R19*%
X127557453Y-78516173D03*
X127557453Y-80341173D03*
%TD*%
%TO.C,R18*%
X125117453Y-78508673D03*
X125117453Y-80333673D03*
%TD*%
D29*
%TO.C,U3*%
X154565000Y-85255000D03*
X153295000Y-85255000D03*
X152025000Y-85255000D03*
X150755000Y-85255000D03*
X150755000Y-90205000D03*
X152025000Y-90205000D03*
X153295000Y-90205000D03*
X154565000Y-90205000D03*
%TD*%
D16*
%TO.C,C38*%
X168950000Y-103552500D03*
X168950000Y-105452500D03*
%TD*%
%TO.C,C5*%
X127207453Y-98816173D03*
X127207453Y-100716173D03*
%TD*%
M02*
