M48
; DRILL file {KiCad 9.0.7} date 2026-03-16T13:53:33+0100
; FORMAT={-:-/ absolute / metric / decimal}
; #@! TF.CreationDate,2026-03-16T13:53:33+01:00
; #@! TF.GenerationSoftware,Kicad,Pcbnew,9.0.7
; #@! TF.FileFunction,Plated,1,2,PTH
FMAT,2
METRIC
; #@! TA.AperFunction,Plated,PTH,ViaDrill
T1C0.300
; #@! TA.AperFunction,Plated,PTH,ComponentDrill
T2C0.500
; #@! TA.AperFunction,Plated,PTH,ComponentDrill
T3C0.750
; #@! TA.AperFunction,Plated,PTH,ComponentDrill
T4C0.800
; #@! TA.AperFunction,Plated,PTH,ComponentDrill
T5C1.000
; #@! TA.AperFunction,Plated,PTH,ComponentDrill
T6C1.190
; #@! TA.AperFunction,Plated,PTH,ComponentDrill
T7C1.620
; #@! TA.AperFunction,Plated,PTH,ComponentDrill
T8C1.850
; #@! TA.AperFunction,Plated,PTH,ComponentDrill
T9C3.200
%
G90
G05
T1
X107.457Y-97.491
X107.84Y-81.04
X108.39Y-77.49
X109.407Y-99.394
X109.902Y-77.134
X109.902Y-78.959
X112.22Y-93.58
X115.982Y-77.176
X116.157Y-99.441
X117.27Y-86.56
X117.34Y-90.38
X119.95Y-87.15
X119.95Y-89.45
X120.5Y-77.23
X121.09Y-99.346
X121.21Y-95.13
X122.15Y-74.018
X123.06Y-85.75
X124.46Y-89.72
X127.145Y-89.64
X128.51Y-96.35
X130.03Y-96.35
X131.62Y-77.065
X131.85Y-89.13
X132.66Y-85.11
X135.7Y-76.08
X136.22Y-80.72
X136.525Y-102.695
X136.525Y-103.965
X136.525Y-105.235
X136.525Y-106.505
X137.767Y-100.991
X138.98Y-104.8
X139.56Y-110.92
X141.475Y-103.965
X141.58Y-102.688
X141.58Y-107.44
X141.86Y-85.12
X141.9Y-90.31
X145.727Y-75.941
X146.107Y-97.091
X146.137Y-102.35
X148.0Y-85.3
X148.04Y-90.46
X148.78Y-98.21
X149.14Y-111.81
X150.49Y-82.79
X150.61Y-93.28
X150.755Y-85.255
X151.6Y-102.34
X151.64Y-100.32
X153.46Y-77.56
X153.487Y-83.07
X154.188Y-93.3
X154.565Y-90.205
X156.79Y-111.84
X159.25Y-79.447
X161.34Y-95.822
X161.39Y-79.4
X163.56Y-95.843
X165.56Y-95.875
X165.634Y-112.733
X167.594Y-112.707
X167.8Y-108.89
X168.95Y-105.453
X169.76Y-108.892
X171.97Y-95.745
X174.71Y-100.74
X176.54Y-99.81
T2
X157.66Y-100.62
X169.9Y-112.35
T3
X104.317Y-100.351
X105.587Y-101.621
X106.012Y-74.386
X106.012Y-76.926
X106.857Y-100.351
X107.282Y-75.656
T4
X122.477Y-82.641
X122.477Y-92.801
X125.017Y-82.641
X125.017Y-92.801
X127.557Y-82.641
X127.557Y-92.801
X130.097Y-82.641
X130.097Y-92.801
X132.637Y-82.641
X132.637Y-92.801
X135.177Y-82.641
X135.177Y-92.801
X137.717Y-82.641
X137.717Y-92.801
X140.257Y-82.641
X140.257Y-92.801
X142.797Y-82.641
X142.797Y-92.801
X145.337Y-82.641
X145.337Y-92.801
X147.877Y-82.641
X147.877Y-92.801
T5
X106.51Y-85.838
X106.51Y-90.838
X118.26Y-65.605
X118.26Y-68.145
T6
X167.97Y-83.25
X167.97Y-85.79
X167.97Y-88.33
X167.97Y-90.87
T7
X133.78Y-109.3
X136.28Y-109.3
X138.78Y-114.3
X141.28Y-109.3
X143.78Y-109.3
X146.55Y-109.3
X149.05Y-109.3
X151.55Y-114.3
X154.05Y-109.3
X156.55Y-109.3
T8
X137.71Y-62.04
X139.615Y-71.57
X144.315Y-71.57
X149.015Y-71.57
X150.92Y-62.04
T9
X124.09Y-69.0
X124.09Y-109.0
X174.09Y-69.0
X174.09Y-109.0
M30
